<svg width="1200" height="630" xmlns="http://www.w3.org/2000/svg">
 <g>
  <title>Layer 1</title>
  <rect width="1200" height="630" fill="#f7df1e" id="svg_1"/>
  <path stroke="null" d="m1027.41225,521.80834c8.50269,13.55069 19.56489,23.51098 39.12978,23.51098c16.43585,0 26.93523,-8.01793 26.93523,-19.09654c0,-13.27602 -10.78749,-17.97821 -28.87832,-25.70185l-9.91645,-4.15284c-28.6237,-11.90264 -47.63917,-26.81363 -47.63917,-58.336c0,-29.0372 22.66713,-51.14209 58.09165,-51.14209c25.21995,0 43.35098,8.56728 56.41657,30.99917l-30.88841,19.35813c-6.80081,-11.90264 -14.13764,-16.59175 -25.52816,-16.59175c-11.61833,0 -18.98197,7.1939 -18.98197,16.59175c0,11.61488 7.37034,16.31707 24.38911,23.51098l9.91645,4.1463c33.70254,14.10659 52.7314,28.48785 52.7314,60.82116c0,34.85772 -28.05418,53.95426 -65.73,53.95426c-36.83828,0 -60.63776,-17.13456 -72.2829,-39.59261l32.23517,-18.27905zm-140.12349,3.35497c6.23128,10.79085 11.89974,19.91403 25.52816,19.91403c13.03209,0 21.25337,-4.97687 21.25337,-24.32846l0,-131.64838l39.66581,0l0,132.17158c0,40.08965 -24.0809,58.336 -59.2307,58.336c-31.75945,0 -50.15179,-16.0424 -59.50541,-35.36456l32.28877,-19.08019z" id="svg_2"/>
 </g>

</svg>