<svg width="400" height="400" xmlns="http://www.w3.org/2000/svg">
 <g>
  <title>Layer 1</title>
  <path class="st0" d="m0,200l0,-200l400,0l0,400l-400,0" fill="#007acc" id="svg_1"/>
  <path stroke="null" class="st1" d="m230.69999,274.68396l0,4.93837l15.72885,0l0,44.83923l11.16144,0l0,-44.83923l15.72885,0l0,-4.84748c0,-2.72671 0,-4.93837 -0.12099,-4.99897c0,-0.09089 -9.58855,-0.12119 -21.23395,-0.12119l-21.17346,0.09089l0,4.96867l-0.09074,-0.0303zm70.6891,-5.05956c3.08528,0.72712 5.4446,2.12077 7.56195,4.33244c1.11917,1.21187 2.7828,3.33265 2.90379,3.87799c0,0.18178 -5.23287,3.7265 -8.40889,5.69579c-0.12099,0.09089 -0.60496,-0.42415 -1.08892,-1.21187c-1.57289,-2.24196 -3.17602,-3.21146 -5.68659,-3.39324c-3.62974,-0.24237 -6.04956,1.66632 -6.04956,4.84748c0,0.9695 0.18149,1.51484 0.54446,2.30255c0.81669,1.66632 2.32908,2.66612 7.01749,4.7263c8.65087,3.7265 12.4016,6.18054 14.67018,9.69497c2.57106,3.93858 3.14577,10.11912 1.42165,14.75453c-1.93586,5.05956 -6.65452,8.4831 -13.39977,9.60408c-2.11735,0.36356 -6.95699,0.30297 -9.22558,-0.09089c-4.83965,-0.9089 -9.46756,-3.33265 -12.31085,-6.45321c-1.11917,-1.21187 -3.26676,-4.45363 -3.14577,-4.6657l1.14942,-0.72712l4.53717,-2.63582l3.418,-1.99959l0.78644,1.06039c0.99818,1.57543 3.23651,3.69621 4.53717,4.42333c3.93221,2.02988 9.19533,1.75721 11.79664,-0.60594c1.11917,-1.03009 1.60313,-2.12077 1.60313,-3.63561c0,-1.39365 -0.21173,-2.02988 -0.90743,-3.09027c-0.96793,-1.33306 -2.90379,-2.42374 -8.34839,-4.84748c-6.26129,-2.66612 -8.9231,-4.36274 -11.40342,-6.96826c-1.42165,-1.57543 -2.7223,-4.02947 -3.32726,-6.05935c-0.45372,-1.75721 -0.60496,-6.05935 -0.18149,-7.78627c1.30066,-6.05935 5.86807,-10.3009 12.4016,-11.51277c2.11735,-0.42415 7.10823,-0.24237 9.19533,0.30297l-0.0605,0.06059z" fill="#fff" id="svg_2"/>
 </g>

</svg>